# xmcd
#
# Track frame offsets:
#	150
#	16077
#	33775
#	51786
#	62429
#	77947
#	92725
#	118580
#	141835
#	162259
#	184131
#	187224
#	204458
#	219482
#
# Disc length: 3160 seconds
# Revision: 0
# Processed by: cddbd v1.5.2PL0 Copyright (c) Steve Scherf et al.
# Submitted via: dBpowerAMP V12.0
#
DISCID=be0c560e
DTITLE=Janks, The - Hands of Time
DYEAR=1900
DGENRE=
TTITLE0=Hands of Time
TTITLE1=Billy the Kid
TTITLE2=Dead Man
TTITLE3=Can't Give Up
TTITLE4=Echo Whispers
TTITLE5=Don't Hide Your Eyes
TTITLE6=Rat Racers
TTITLE7=Seperation From Your Body
TTITLE8=Demon Dance
TTITLE9=Drama King's Ball
TTITLE10=Adolescence
TTITLE11=Child Prodigy
TTITLE12=When I Was a Kid
TTITLE13=Get Outta Town
EXTD=
EXTT0=
EXTT1=
EXTT2=
EXTT3=
EXTT4=
EXTT5=
EXTT6=
EXTT7=
EXTT8=
EXTT9=
EXTT10=
EXTT11=
EXTT12=
EXTT13=
PLAYORDER=
